<?xml version="1.0" encoding="UTF-8"?>
<svg version="1.1" xmlns="http://www.w3.org/2000/svg" width="200" height="200">
<path d="M0 0 C1.76597534 0.01353516 1.76597534 0.01353516 3.56762695 0.02734375 C22.52037393 0.40153934 40.18511995 5.87608599 54.75 18.4375 C55.85214844 19.30955078 55.85214844 19.30955078 56.9765625 20.19921875 C67.25439337 28.67241377 74.52796816 41.2375012 76.75 54.4375 C76.96549388 58.4771954 76.93510656 62.51759048 76.9375 66.5625 C76.94974609 67.65949219 76.96199219 68.75648437 76.97460938 69.88671875 C76.97654297 70.93730469 76.97847656 71.98789063 76.98046875 73.0703125 C76.98457764 74.02824707 76.98868652 74.98618164 76.99291992 75.97314453 C76.75 78.4375 76.75 78.4375 74.75 81.4375 C70.875 80.5625 70.875 80.5625 69.75 79.4375 C69.64096555 77.94423471 69.59417636 76.44632644 69.57421875 74.94921875 C69.18584832 57.66898393 66.52900189 43.4327895 54.57421875 30.16015625 C40.23731414 16.6214519 21.49332573 10.4375 1.921875 10.4375 C-16.71907973 11.35804097 -33.20150656 16.54483416 -46.25 30.4375 C-51.06053655 35.87457443 -54.17715256 41.89952673 -57.25 48.4375 C-57.85032155 49.64774825 -58.45378649 50.8564508 -59.0625 52.0625 C-59.6503125 53.238125 -59.6503125 53.238125 -60.25 54.4375 C-60.91 54.4375 -61.57 54.4375 -62.25 54.4375 C-65.19040613 72.44748758 -62.72054433 88.28677473 -52.25 103.4375 C-40.5643677 118.47017599 -22.93923448 127.0280865 -4.25 129.4375 C6.61446637 130.35909751 16.58438597 128.16301881 27 125.25 C38.14469745 122.83531555 48.81100572 125.51306218 58.69921875 131.10546875 C59.37597656 131.54503906 60.05273438 131.98460937 60.75 132.4375 C60.47736328 131.52871094 60.47736328 131.52871094 60.19921875 130.6015625 C59.66936586 128.83538622 59.14222159 127.06839601 58.6171875 125.30078125 C58.05925727 123.45860621 57.48256844 121.62195421 56.8828125 119.79296875 C55.26986229 114.79282311 54.40725907 110.6928609 54.75 105.4375 C57.225 104.9425 57.225 104.9425 59.75 104.4375 C62.84861296 108.04401348 64.93587523 111.55804765 66.9140625 115.875 C67.19220795 116.47755615 67.47035339 117.0801123 67.75692749 117.70092773 C68.63616857 119.61018992 69.50555703 121.52375943 70.375 123.4375 C70.96553391 124.72163575 71.55667454 126.00549267 72.1484375 127.2890625 C79.14471743 142.51673855 79.14471743 142.51673855 78.75 148.4375 C78.42 149.0975 78.09 149.7575 77.75 150.4375 C68.78609471 151.52015843 62.55865986 148.50606114 54.6875 144.5 C42.79880318 138.32093542 42.79880318 138.32093542 29.74609375 137.9609375 C28.90175781 138.24195313 28.05742187 138.52296875 27.1875 138.8125 C23.69832439 139.92555186 21.48098471 140.4375 17.75 140.4375 C12.86624327 140.90309141 10.34727488 144.585446 7.16577148 147.99829102 C-1.98761483 157.65126519 -15.68497459 164.88407265 -29.18359375 165.5300293 C-31.45677375 165.57211578 -33.72647518 165.57563227 -36 165.5625 C-37.20934204 165.55959961 -37.20934204 165.55959961 -38.44311523 165.55664062 C-43.78761915 165.51769676 -48.94636446 165.11097753 -54.25 164.4375 C-64.37377845 163.61259953 -73.13202181 166.04378679 -81.875 171.125 C-87.55462113 174.38615761 -91.77738444 175.35798483 -98.25 174.4375 C-98.71927801 167.36959851 -96.59590127 161.61203889 -94.29492188 154.99609375 C-91.96435539 147.83440003 -91.66864198 142.24105791 -94.58984375 135.21484375 C-95.11707031 134.27769531 -95.64429687 133.34054688 -96.1875 132.375 C-102.25137516 120.78529136 -103.20927187 108.18212388 -99.625 95.5625 C-95.93517518 85.14870869 -89.77554993 74.50504802 -79.7421875 69.08203125 C-78.94039062 68.70433594 -78.13859375 68.32664062 -77.3125 67.9375 C-74.72805536 66.63177013 -73.52694651 66.00212738 -72.2421875 63.3828125 C-71.40267841 59.87106321 -71.22948603 56.79307545 -71.4375 53.1875 C-70.76259488 39.68939764 -60.99024711 26.21120035 -51.3984375 17.20703125 C-36.63062874 5.04372695 -18.93163903 -0.17553421 0 0 Z M-79.25 81.4375 C-80.82752544 83.71403241 -82.19010166 85.83740779 -83.5 88.25 C-83.84353516 88.87310059 -84.18707031 89.49620117 -84.54101562 90.13818359 C-89.2632605 98.93393775 -91.07696287 108.3765354 -88.52734375 118.23046875 C-87.161924 122.06138326 -85.56734081 125.74618248 -83.87109375 129.44140625 C-78.92845708 140.46728805 -79.6138984 148.05303904 -83.25 159.4375 C-82.53714844 159.23253906 -81.82429688 159.02757812 -81.08984375 158.81640625 C-80.13207031 158.54699219 -79.17429687 158.27757812 -78.1875 158 C-77.24777344 157.73316406 -76.30804688 157.46632813 -75.33984375 157.19140625 C-68.64612636 155.55817306 -62.56642385 155.38901769 -55.75 155.8125 C-54.87359863 155.85995361 -53.99719727 155.90740723 -53.09423828 155.95629883 C-49.04410155 156.18171635 -45.00182595 156.44569607 -40.9609375 156.80078125 C-25.03297649 158.14703457 -13.079719 154.02824076 -0.25 144.4375 C1.53205306 142.34225331 1.53205306 142.34225331 2.75 140.4375 C1.94820313 140.36273438 1.14640625 140.28796875 0.3203125 140.2109375 C-24.38900296 137.35339762 -43.60520471 126.85998576 -59.4375 107.8046875 C-66.43245799 98.42782572 -69.78297924 87.74969276 -72.25 76.4375 C-74.82542855 76.4375 -77.46090987 79.68350099 -79.25 81.4375 Z " fill="#A52929" transform="translate(111.25,12.5625)"/>
<path d="M0 0 C0.33 0 0.66 0 1 0 C1 3.96 1 7.92 1 12 C0.34 12 -0.32 12 -1 12 C-0.67 12.99 -0.34 13.98 0 15 C-0.90234375 15.68449219 -1.8046875 16.36898437 -2.734375 17.07421875 C-6.05309314 19.84599186 -8.19882723 23.03461642 -10.25 26.8125 C-10.59353516 27.43560059 -10.93707031 28.05870117 -11.29101562 28.70068359 C-16.0132605 37.49643775 -17.82696287 46.9390354 -15.27734375 56.79296875 C-13.911924 60.62388326 -12.31734081 64.30868248 -10.62109375 68.00390625 C-5.84087002 78.66748227 -6.09303778 86.06980806 -10 97 C-9.35933594 96.79503906 -8.71867187 96.59007812 -8.05859375 96.37890625 C-7.19363281 96.10949219 -6.32867187 95.84007812 -5.4375 95.5625 C-4.59058594 95.29566406 -3.74367188 95.02882813 -2.87109375 94.75390625 C3.71713391 93.02393627 9.77275942 92.95705835 16.5 93.375 C17.37640137 93.42245361 18.25280273 93.46990723 19.15576172 93.51879883 C23.20589845 93.74421635 27.24817405 94.00819607 31.2890625 94.36328125 C47.62430682 95.74395872 58.6523292 91.2635117 72 82 C72.66 81.34 73.32 80.68 74 80 C76.09375 79.515625 76.09375 79.515625 78.5 79.25 C79.2940625 79.15203125 80.088125 79.0540625 80.90625 78.953125 C83 79 83 79 85 81 C74.13068072 92.97342621 61.27712226 101.53020544 45 104 C42.08204052 104.13963468 39.17080991 104.1418711 36.25 104.125 C35.44377197 104.12306641 34.63754395 104.12113281 33.80688477 104.11914062 C28.46238085 104.08019676 23.30363554 103.67347753 18 103 C7.87622155 102.17509953 -0.88202181 104.60628679 -9.625 109.6875 C-15.30462113 112.94865761 -19.52738444 113.92048483 -26 113 C-26.46927801 105.93209851 -24.34590127 100.17453889 -22.04492188 93.55859375 C-19.71435539 86.39690003 -19.41864198 80.80355791 -22.33984375 73.77734375 C-22.86707031 72.84019531 -23.39429688 71.90304688 -23.9375 70.9375 C-30.00137516 59.34779136 -30.95927187 46.74462388 -27.375 34.125 C-23.21213528 22.37614834 -16.27145545 12.0651429 -5 6.1875 C-4.2575 5.85105469 -3.515 5.51460938 -2.75 5.16796875 C-0.80221198 4.12135267 -0.80221198 4.12135267 -0.25 1.86328125 C-0.1675 1.24839844 -0.085 0.63351563 0 0 Z " fill="#23333B" transform="translate(39,74)"/>
<path d="M0 0 C5.51047132 -0.2835577 9.20350291 0.71251801 13.52734375 4.1953125 C19.74798458 10.41595333 20.77578959 16.38133099 20.80078125 24.82226562 C20.79304688 25.70849609 20.7853125 26.59472656 20.77734375 27.5078125 C20.78894531 28.86616211 20.78894531 28.86616211 20.80078125 30.25195312 C20.79820312 31.11626953 20.795625 31.98058594 20.79296875 32.87109375 C20.79071289 33.65395752 20.78845703 34.43682129 20.78613281 35.2434082 C20.52734375 37.1953125 20.52734375 37.1953125 18.52734375 39.1953125 C15.6724635 40.09685363 14.11938391 40.40910478 11.27734375 39.3828125 C9.52734375 38.1953125 9.52734375 38.1953125 8.52734375 36.1953125 C8.09307544 30.15387392 8.76709271 24.18228941 9.52734375 18.1953125 C4.37233304 22.35948998 0.22209051 26.68049662 -3.74609375 31.98046875 C-8.20845607 37.70481137 -12.44739409 42.14874434 -19.59765625 44.0078125 C-25.93289327 44.31435623 -31.46418185 42.22346426 -37.09765625 39.4453125 C-41.28764439 37.89346504 -44.29505326 37.43545612 -48.47265625 39.1953125 C-52.28532337 42.46552698 -55.03082353 46.37714208 -57.53515625 50.6953125 C-59.47265625 53.1953125 -59.47265625 53.1953125 -62.47265625 53.8203125 C-66.12522683 53.0593603 -67.42095321 52.31390112 -69.47265625 49.1953125 C-69.84411597 43.87105657 -66.79903548 40.31766064 -63.58203125 36.3828125 C-58.08143563 30.67849111 -52.06697191 27.11034255 -44.09765625 26.7578125 C-37.63495792 26.7578125 -33.15317628 28.86437545 -27.578125 31.98046875 C-23.65883966 33.51367346 -21.51253812 33.29626092 -17.47265625 32.1953125 C-13.3660196 29.57431205 -10.80698441 26.24246379 -7.97265625 22.3203125 C-4.92277273 18.15536306 -1.84024404 14.10605961 1.52734375 10.1953125 C-2.9879925 8.69020042 -7.58412777 8.91127465 -12.3203125 8.76953125 C-15.47265625 8.1953125 -15.47265625 8.1953125 -16.90625 6.15234375 C-17.09316406 5.50652344 -17.28007813 4.86070313 -17.47265625 4.1953125 C-12.29723442 -0.30452979 -6.51820964 0.51486648 0 0 Z " fill="#A2292A" transform="translate(138.47265625,51.8046875)"/>
<path d="M0 0 C1.76597534 0.01353516 1.76597534 0.01353516 3.56762695 0.02734375 C22.52037393 0.40153934 40.18511995 5.87608599 54.75 18.4375 C55.48476562 19.01886719 56.21953125 19.60023437 56.9765625 20.19921875 C67.25439337 28.67241377 74.52796816 41.2375012 76.75 54.4375 C76.96549388 58.4771954 76.93510656 62.51759048 76.9375 66.5625 C76.94974609 67.65949219 76.96199219 68.75648437 76.97460938 69.88671875 C76.97654297 70.93730469 76.97847656 71.98789063 76.98046875 73.0703125 C76.98457764 74.02824707 76.98868652 74.98618164 76.99291992 75.97314453 C76.75 78.4375 76.75 78.4375 74.75 81.4375 C70.875 80.5625 70.875 80.5625 69.75 79.4375 C69.64096555 77.94423471 69.59417636 76.44632644 69.57421875 74.94921875 C69.18584832 57.66898393 66.52900189 43.4327895 54.57421875 30.16015625 C39.17851242 15.62159845 19.30196675 10.16145413 -1.5625 10.4375 C-3.13451172 10.499375 -3.13451172 10.499375 -4.73828125 10.5625 C-7.25 10.4375 -7.25 10.4375 -9.25 8.4375 C0.65 7.9425 0.65 7.9425 10.75 7.4375 C10.75 6.7775 10.75 6.1175 10.75 5.4375 C12.4 5.4375 14.05 5.4375 15.75 5.4375 C15.75 4.4475 15.75 3.4575 15.75 2.4375 C-1.18080802 1.99980842 -17.31758017 2.00197698 -33.1484375 8.765625 C-35.25 9.4375 -35.25 9.4375 -38.25 8.4375 C-36.52734674 7.65221843 -34.79629801 6.88535902 -33.0625 6.125 C-32.09957031 5.69574219 -31.13664062 5.26648438 -30.14453125 4.82421875 C-20.34383647 1.0569313 -10.42979626 -0.0967051 0 0 Z " fill="#A42A2A" transform="translate(111.25,12.5625)"/>
<path d="M0 0 C2.4248382 0.21466772 4.73128499 0.53220149 7.125 0.9375 C16.81775019 2.37587892 26.08813666 1.94760995 35.77734375 0.39453125 C39 0 39 0 42 1 C42.66 0.67 43.32 0.34 44 0 C44.061875 0.61875 44.12375 1.2375 44.1875 1.875 C44.828919 4.27761141 44.828919 4.27761141 47.5625 5.25 C48.366875 5.4975 49.17125 5.745 50 6 C50 6.66 50 7.32 50 8 C43.53329373 10.17840317 37.28547127 11.33168587 30.5 11.75 C29.80583984 11.79439209 29.11167969 11.83878418 28.39648438 11.88452148 C25.26281289 12.04174323 23.00574999 12.00191666 20 11 C18.64019236 10.71712973 17.27636822 10.45323952 15.91015625 10.203125 C15.12576172 10.0484375 14.34136719 9.89375 13.53320312 9.734375 C11.89271684 9.41276188 10.24938324 9.10533109 8.60351562 8.8125 C4.43361574 7.96415285 2.48081389 7.4947187 -0.56640625 4.359375 C-1.03949219 3.58078125 -1.51257813 2.8021875 -2 2 C-1.34 1.34 -0.68 0.68 0 0 Z " fill="#A42626" transform="translate(94,142)"/>
<path d="M0 0 C2.2891112 0.93976227 3.70916931 1.55264928 5.07739258 3.65722656 C5.34704834 4.31174805 5.6167041 4.96626953 5.89453125 5.640625 C6.20712891 6.37522949 6.51972656 7.10983398 6.84179688 7.86669922 C7.16212891 8.65318848 7.48246094 9.43967773 7.8125 10.25 C8.50350411 11.88408704 9.19755837 13.51688734 9.89453125 15.1484375 C10.24209473 15.9640918 10.5896582 16.77974609 10.94775391 17.62011719 C12.99521888 22.2509034 15.38150008 26.70702917 17.75 31.1796875 C19 34 19 34 19 38 C17.3125 40.75 17.3125 40.75 15 43 C11.23692901 43.64247553 10.24153166 43.1610211 7 41 C7.33 39.35 7.66 37.7 8 36 C7.34 36 6.68 36 6 36 C5.505 34.515 5.505 34.515 5 33 C4.67 32.34 4.34 31.68 4 31 C5.32 31 6.64 31 8 31 C7.5831897 29.80455566 7.5831897 29.80455566 7.15795898 28.58496094 C6.13010703 25.62084239 5.11181356 22.65366002 4.09985352 19.68408203 C3.66028974 18.40054933 3.21696119 17.11829943 2.76977539 15.83740234 C2.12694276 13.99399574 1.4988278 12.14547762 0.87109375 10.296875 C0.48880615 9.18666992 0.10651855 8.07646484 -0.28735352 6.93261719 C-0.98507053 4.06143638 -1.04212832 2.71357513 0 0 Z " fill="#A62424" transform="translate(168,118)"/>
<path d="M0 0 C1.1758667 0.00829834 2.3517334 0.01659668 3.56323242 0.02514648 C19.07913291 0.32432771 31.27974123 3.83779774 44.75 11.4375 C44.09 11.7675 43.43 12.0975 42.75 12.4375 C40.796875 11.6953125 40.796875 11.6953125 38.5 10.5625 C34.90365894 8.87762293 31.73689495 7.8464123 27.75 7.4375 C27.75 8.0975 27.75 8.7575 27.75 9.4375 C27.09 9.4375 26.43 9.4375 25.75 9.4375 C25.75 10.0975 25.75 10.7575 25.75 11.4375 C26.4925 11.581875 27.235 11.72625 28 11.875 C30.75 12.4375 30.75 12.4375 32.9375 13.0625 C34.83903493 13.65096359 34.83903493 13.65096359 36.75 12.4375 C37.245 14.9125 37.245 14.9125 37.75 17.4375 C37.16734375 17.25574219 36.5846875 17.07398437 35.984375 16.88671875 C33.24600244 16.04712339 30.49999135 15.23822212 27.75 14.4375 C26.82316406 14.16292969 25.89632812 13.88835938 24.94140625 13.60546875 C15.41569077 10.98169637 5.79887534 10.2852332 -4.0625 10.5 C-7.25 10.4375 -7.25 10.4375 -9.25 8.4375 C0.65 7.9425 0.65 7.9425 10.75 7.4375 C10.75 6.7775 10.75 6.1175 10.75 5.4375 C12.4 5.4375 14.05 5.4375 15.75 5.4375 C15.75 4.4475 15.75 3.4575 15.75 2.4375 C-1.18080802 1.99980842 -17.31758017 2.00197698 -33.1484375 8.765625 C-35.25 9.4375 -35.25 9.4375 -38.25 8.4375 C-36.52734674 7.65221843 -34.79629801 6.88535902 -33.0625 6.125 C-32.09957031 5.69574219 -31.13664062 5.26648438 -30.14453125 4.82421875 C-20.34352972 1.05681339 -10.43001205 -0.09596548 0 0 Z " fill="#A73D3F" transform="translate(111.25,12.5625)"/>
<path d="M0 0 C0.33 0.99 0.66 1.98 1 3 C3.475 3.495 3.475 3.495 6 4 C6 4.66 6 5.32 6 6 C6.61875 6.20625 7.2375 6.4125 7.875 6.625 C10.84653645 8.54775888 11.13024659 10.66594527 12 14 C11.34 14 10.68 14 10 14 C10 14.66 10 15.32 10 16 C8.68 16 7.36 16 6 16 C6 18.64 6 21.28 6 24 C5.67 24 5.34 24 5 24 C4.67 21.69 4.34 19.38 4 17 C2.68 16.67 1.36 16.34 0 16 C1 13 1 13 3 11 C2.360625 10.71125 1.72125 10.4225 1.0625 10.125 C-1 9 -1 9 -2 7 C-7.94 7 -13.88 7 -20 7 C-20 6.01 -20 5.02 -20 4 C-15.37630977 2.19320413 -11.57471347 1.78160918 -6.625 1.875 C-5.37976563 1.89304688 -4.13453125 1.91109375 -2.8515625 1.9296875 C-1.44003906 1.96449219 -1.44003906 1.96449219 0 2 C0 1.34 0 0.68 0 0 Z " fill="#A72425" transform="translate(144,52)"/>
<path d="M0 0 C5.12878194 -0.3657736 9.03964259 0.89816648 13.6875 2.875 C14.68233398 3.27912109 14.68233398 3.27912109 15.69726562 3.69140625 C21.25281092 5.98523663 24.02761754 7.7983307 27 13 C27.98244845 14.34631825 28.97676564 15.68441297 30 17 C29.34 17 28.68 17 28 17 C28 17.66 28 18.32 28 19 C26.68 19 25.36 19 24 19 C24 18.34 24 17.68 24 17 C22.989375 16.773125 21.97875 16.54625 20.9375 16.3125 C15.86439839 14.85862332 11.38111843 12.22179921 8.5625 7.6875 C8.376875 7.130625 8.19125 6.57375 8 6 C7.01 6.495 7.01 6.495 6 7 C4.0546875 6.44140625 4.0546875 6.44140625 1.875 5.5625 C1.15054688 5.27503906 0.42609375 4.98757812 -0.3203125 4.69140625 C-0.87460938 4.46324219 -1.42890625 4.23507813 -2 4 C-2 3.34 -2 2.68 -2 2 C-1.34 2 -0.68 2 0 2 C0 1.34 0 0.68 0 0 Z " fill="#A62424" transform="translate(139,20)"/>
<path d="M0 0 C0.66 0.33 1.32 0.66 2 1 C1.34 2.98 0.68 4.96 0 7 C2.65228812 8.07525194 5.28368454 9.09456151 8 10 C6.54234835 11.62561151 5.08385614 13.25046934 3.625 14.875 C2.81289063 15.77992187 2.00078125 16.68484375 1.1640625 17.6171875 C-0.19076205 19.10896183 -1.57505435 20.57505435 -3 22 C-3.99 21.01 -4.98 20.02 -6 19 C-5.67 18.01 -5.34 17.02 -5 16 C-4.34 15.67 -3.68 15.34 -3 15 C-2.67 14.01 -2.34 13.02 -2 12 C-2.33 11.34 -2.66 10.68 -3 10 C-3.4125 10.495 -3.825 10.99 -4.25 11.5 C-6 13 -6 13 -10 13 C-10.3403125 14.175625 -10.3403125 14.175625 -10.6875 15.375 C-12.10188777 19.28140433 -13.8725138 22.85152816 -15.78125 26.53515625 C-16.9912224 28.98224786 -18.01949247 31.45340404 -19 34 C-17.68 34.33 -16.36 34.66 -15 35 C-15 35.66 -15 36.32 -15 37 C-15.66 37 -16.32 37 -17 37 C-17.73989213 39.90624297 -18.41650906 42.82150775 -19.0625 45.75 C-19.23910156 46.54921875 -19.41570313 47.3484375 -19.59765625 48.171875 C-19.73042969 48.77515625 -19.86320312 49.3784375 -20 50 C-20.33 50 -20.66 50 -21 50 C-21.93469042 32.65629994 -17.78682704 20.65351361 -7 7 C-4.75693171 4.51089131 -2.47528349 2.26462107 0 0 Z " fill="#A0272A" transform="translate(61,29)"/>
<path d="M0 0 C0 3.89257033 -1.3922706 5.73232389 -3.375 9.0625 C-4.31472656 10.65771484 -4.31472656 10.65771484 -5.2734375 12.28515625 C-7 15 -7 15 -9 17 C-12.0625 17.1875 -12.0625 17.1875 -15 17 C-15.33 16.67 -15.66 16.34 -16 16 C-15.71583991 8.89599765 -12.82493387 4.91606077 -8.0625 0 C-5.12917322 -1.42221904 -3.08757975 -0.77189494 0 0 Z " fill="#A62425" transform="translate(87,86)"/>
<path d="M0 0 C1.76100758 3.40461465 3 6.09349661 3 10 C2.34 10 1.68 10 1 10 C1 10.66 1 11.32 1 12 C-3.4024732 15.65083143 -6.32822615 16.45374191 -12 16 C-12.25 9.375 -12.25 9.375 -10 6 C-9.566875 5.29875 -9.13375 4.5975 -8.6875 3.875 C-6.5561267 1.50680744 -5.09967561 1.39739431 -2 1 C-1.34 0.67 -0.68 0.34 0 0 Z " fill="#23333B" transform="translate(25,171)"/>
<path d="M0 0 C0 0.99 0 1.98 0 3 C-0.66 3 -1.32 3 -2 3 C-4.01104983 15.3176802 -3.4003733 26.99749185 0 39 C-2.55028983 37.72485508 -2.93081711 36.59658703 -4 34 C-4 33.01 -4 32.02 -4 31 C-5.98 31.99 -5.98 31.99 -8 33 C-6.79446037 37.82215851 -5.19136026 41.79520181 -2.70703125 46.10546875 C-1.83134966 48.45190838 -2.19018971 49.67372967 -3 52 C-8.66955152 42.36176242 -10.94406909 32.88434014 -13 22 C-12.01 21.67 -11.02 21.34 -10 21 C-10 22.98 -10 24.96 -10 27 C-9.34 27 -8.68 27 -8 27 C-7.34 27.66 -6.68 28.32 -6 29 C-6.02320313 27.96101563 -6.04640625 26.92203125 -6.0703125 25.8515625 C-6.34621881 8.43393131 -6.34621881 8.43393131 -4 3 C-1.921875 1.23828125 -1.921875 1.23828125 0 0 Z " fill="#993638" transform="translate(51,64)"/>
<path d="M0 0 C1.875 0.1875 1.875 0.1875 4 1 C5.25 3.5625 5.25 3.5625 6 6 C6.66 6 7.32 6 8 6 C8.66 7.65 9.32 9.3 10 11 C10.66 11 11.32 11 12 11 C13.65 14.63 15.3 18.26 17 22 C17.66 22 18.32 22 19 22 C19.66 23.32 20.32 24.64 21 26 C20.505 21.05 20.505 21.05 20 16 C24.33215338 22.49823007 24.27863374 29.44592983 24 37 C23.67 37 23.34 37 23 37 C22.71125 36.030625 22.4225 35.06125 22.125 34.0625 C21.35785318 30.89335797 21.35785318 30.89335797 19 30 C18.67 31.98 18.34 33.96 18 36 C17.67 36 17.34 36 17 36 C16.78085938 34.97261719 16.56171875 33.94523437 16.3359375 32.88671875 C13.66536557 20.97651561 9.83691395 11.49369661 1.3203125 2.4609375 C0 1 0 1 0 0 Z " fill="#9C3131" transform="translate(164,40)"/>
<path d="M0 0 C0.99 0 1.98 0 3 0 C3.26554687 0.54269531 3.53109375 1.08539063 3.8046875 1.64453125 C4.15789063 2.35996094 4.51109375 3.07539062 4.875 3.8125 C5.22304688 4.52019531 5.57109375 5.22789063 5.9296875 5.95703125 C7.0656486 8.21246418 7.0656486 8.21246418 9 11 C9.125 14.1875 9.125 14.1875 9 17 C9.66 17 10.32 17 11 17 C10.67 18.32 10.34 19.64 10 21 C8.25 20.9375 8.25 20.9375 6 20 C4.92812539 18.31098547 3.86549831 16.61026549 2.94921875 14.83203125 C1.95601892 12.82478591 1.95601892 12.82478591 0.25 10.4375 C-1.29410889 7.42648766 -1.29703366 5.34162865 -1 2 C-0.67 1.34 -0.34 0.68 0 0 Z " fill="#A52426" transform="translate(44,95)"/>
<path d="M0 0 C2.3125 0.0625 2.3125 0.0625 5 1 C9.31233263 6.00787015 15 15.40844762 15 22 C12 21 12 21 10.97265625 19.26586914 C10.67230469 18.52973389 10.37195313 17.79359863 10.0625 17.03515625 C9.72476563 16.23529297 9.38703125 15.43542969 9.0390625 14.61132812 C8.69617188 13.77021484 8.35328125 12.92910156 8 12.0625 C7.32081789 10.40412112 6.6336373 8.74898957 5.9375 7.09765625 C5.63714844 6.36039307 5.33679688 5.62312988 5.02734375 4.86352539 C4.0049749 2.67047564 4.0049749 2.67047564 1 1 C1.54279484 7.56705302 3.26807618 13.15617469 5.5625 19.3125 C6.21384257 21.07788053 6.861167 22.84475027 7.50390625 24.61328125 C7.79080322 25.38454346 8.0777002 26.15580566 8.37329102 26.95043945 C9 29 9 29 9 32 C4.25 30.125 4.25 30.125 2 29 C2.33 28.34 2.66 27.68 3 27 C3.66 27.33 4.32 27.66 5 28 C4.72736328 27.09121094 4.72736328 27.09121094 4.44921875 26.1640625 C3.91936586 24.39788622 3.39222159 22.63089601 2.8671875 20.86328125 C2.30925727 19.02110621 1.73256844 17.18445421 1.1328125 15.35546875 C-0.47481016 10.37183849 -1.44623591 6.24327194 -1 1 C-0.67 0.67 -0.34 0.34 0 0 Z " fill="#A4464A" transform="translate(167,117)"/>
<path d="M0 0 C0 0.66 0 1.32 0 2 C-2.5 3.5 -2.5 3.5 -5 5 C-9.23625479 8.82296164 -13.73546008 12.9577909 -14.25 18.875 C-14.1675 19.57625 -14.085 20.2775 -14 21 C-11.17667236 21.44959132 -11.17667236 21.44959132 -8 21 C-5.6449301 18.68092533 -5.6449301 18.68092533 -3.8125 15.625 C-0.22706422 10.15137615 -0.22706422 10.15137615 3 8 C3.99 8.33 4.98 8.66 6 9 C4.96875 9.804375 3.9375 10.60875 2.875 11.4375 C-0.14573322 13.97199849 -2.04887747 16.49403697 -4.0625 19.875 C-6.60633199 23.89764632 -6.60633199 23.89764632 -10.125 24.8125 C-13.60428694 23.82922326 -15.00633286 23.03037405 -17 20 C-17.37582368 14.61319385 -14.23182645 11.09366754 -10.98046875 7.125 C-4.34007353 0 -4.34007353 0 0 0 Z " fill="#A4484B" transform="translate(86,81)"/>
<path d="M0 0 C3 3.625 3 3.625 3 7 C1.68 7 0.36 7 -1 7 C-1 7.66 -1 8.32 -1 9 C-5.68493876 11.48887372 -8.9444214 10.85687773 -14 10 C-13.77734375 8.109375 -13.77734375 8.109375 -13 6 C-11.00390625 4.953125 -11.00390625 4.953125 -8.5625 4.25 C-7.35787109 3.88648437 -7.35787109 3.88648437 -6.12890625 3.515625 C-4 3 -4 3 -2 3 C-2 2.34 -2 1.68 -2 1 C-1.34 0.67 -0.68 0.34 0 0 Z " fill="#A62525" transform="translate(125,83)"/>
<path d="M0 0 C3.08380443 2.62077073 4.49019889 5.67901837 6.1875 9.3125 C6.71730469 10.42238281 7.24710938 11.53226563 7.79296875 12.67578125 C9.02731622 16.0752301 9.31515605 18.41962058 9 22 C8.67 22.66 8.34 23.32 8 24 C1.48208608 24.3540919 -3.17521449 24.03901852 -9 21 C-8.01 20.34 -7.02 19.68 -6 19 C-5.01 19.66 -4.02 20.32 -3 21 C-0.37468476 21.16713569 -0.37468476 21.16713569 2 21 C2.28875 20.360625 2.5775 19.72125 2.875 19.0625 C4 17 4 17 6 16 C5.00161725 13.98524561 3.99070178 11.98262522 2.9296875 10 C2.40761719 9.01 2.40761719 9.01 1.875 8 C1.52179688 7.34 1.16859375 6.68 0.8046875 6 C0 4 0 4 0 0 Z " fill="#9D2E2E" transform="translate(181,139)"/>
<path d="M0 0 C14.17849133 -0.36032918 27.72368871 -0.64998899 41.27734375 4.1640625 C43.93169503 5.32166831 43.93169503 5.32166831 46 4 C46.495 6.475 46.495 6.475 47 9 C46.41734375 8.81824219 45.8346875 8.63648438 45.234375 8.44921875 C42.49600244 7.60962339 39.74999135 6.80072212 37 6 C36.07316406 5.72542969 35.14632812 5.45085938 34.19140625 5.16796875 C24.66569077 2.54419637 15.04887534 1.8477332 5.1875 2.0625 C2 2 2 2 0 0 Z " fill="#973233" transform="translate(102,21)"/>
<path d="M0 0 C0 3.41677364 -1.07075704 5.02874222 -2.78515625 7.90234375 C-5.96124803 13.38646364 -8.70890723 19.09360487 -11 25 C-9.68 25.33 -8.36 25.66 -7 26 C-7 26.66 -7 27.32 -7 28 C-7.66 28 -8.32 28 -9 28 C-9.73989213 30.90624297 -10.41650906 33.82150775 -11.0625 36.75 C-11.23910156 37.54921875 -11.41570313 38.3484375 -11.59765625 39.171875 C-11.73042969 39.77515625 -11.86320312 40.3784375 -12 41 C-12.33 41 -12.66 41 -13 41 C-13.85403344 25.15293505 -11.11815173 13.72928766 -1 1 C-0.67 0.67 -0.34 0.34 0 0 Z " fill="#983B41" transform="translate(53,38)"/>
<path d="M0 0 C0.99 0.33 1.98 0.66 3 1 C1.700625 2.3921875 1.700625 2.3921875 0.375 3.8125 C-7.60665359 13.15595231 -10.91752668 22.89949931 -11.65625 34.99609375 C-11.7696875 35.65738281 -11.883125 36.31867188 -12 37 C-12.99 37.495 -12.99 37.495 -14 38 C-15.25109748 24.62715804 -10.80772647 13.34518524 -2.671875 2.9765625 C-1.81083027 1.9585984 -0.94277487 0.94277487 0 0 Z " fill="#313B42" transform="translate(34,89)"/>
<path d="M0 0 C2.31 0 4.62 0 7 0 C7.226875 0.78375 7.45375 1.5675 7.6875 2.375 C8.78125 5.21875 8.78125 5.21875 11.625 6.3125 C12.800625 6.6528125 12.800625 6.6528125 14 7 C14 7.66 14 8.32 14 9 C14.78375 9.268125 15.5675 9.53625 16.375 9.8125 C19 11 19 11 21 14 C18.76182479 13.52039103 17.00642765 13.00361555 15 11.875 C12.56061193 10.80776772 11.45901654 11.12177981 9 12 C8.67 10.68 8.34 9.36 8 8 C7.34 8 6.68 8 6 8 C6 6.68 6 5.36 6 4 C5.38125 3.896875 4.7625 3.79375 4.125 3.6875 C2 3 2 3 0 0 Z " fill="#A72326" transform="translate(57,122)"/>
<path d="M0 0 C0.33 0 0.66 0 1 0 C1 3.96 1 7.92 1 12 C-0.32 12.33 -1.64 12.66 -3 13 C-3 11.68 -3 10.36 -3 9 C-10.74513747 10.34249049 -16.28776671 18.22751422 -21 24 C-21 19.07236867 -17.30569892 16.40900201 -14 13 C-10.72240854 9.83542893 -7.75048355 7.36134393 -3.625 5.375 C-0.83558681 4.27636103 -0.83558681 4.27636103 -0.125 1.8125 C-0.08375 1.214375 -0.0425 0.61625 0 0 Z " fill="#382D32" transform="translate(39,74)"/>
<path d="M0 0 C-0.93590504 1.1055189 -1.87379858 2.20935453 -2.8125 3.3125 C-3.33457031 3.92738281 -3.85664062 4.54226562 -4.39453125 5.17578125 C-5.87172469 6.85424679 -7.40039131 8.43882034 -9 10 C-9.66 9.67 -10.32 9.34 -11 9 C-10.67 7.68 -10.34 6.36 -10 5 C-10.99 5.33 -11.98 5.66 -13 6 C-12.8125 3.625 -12.8125 3.625 -12 1 C-7.95664562 -1.61628813 -4.56788952 -0.89566461 0 0 Z M-10 3 C-9 5 -9 5 -9 5 Z " fill="#2F3038" transform="translate(124,154)"/>
<path d="M0 0 C0.33 0.99 0.66 1.98 1 3 C2.98 2.67 4.96 2.34 7 2 C7.33 4.31 7.66 6.62 8 9 C8.66 8.34 9.32 7.68 10 7 C10 8.65 10 10.3 10 12 C7.18263828 12.78260048 5.54030762 13.19511109 2.75 12.1875 C1 11 1 11 0 9 C-0.06950541 7.45976004 -0.08452357 5.91665012 -0.0625 4.375 C-0.05347656 3.55773437 -0.04445312 2.74046875 -0.03515625 1.8984375 C-0.02355469 1.27195312 -0.01195312 0.64546875 0 0 Z " fill="#A12A2C" transform="translate(147,79)"/>
<path d="M0 0 C0 0.66 0 1.32 0 2 C-1.41152344 2.07347656 -1.41152344 2.07347656 -2.8515625 2.1484375 C-4.71941406 2.26058594 -4.71941406 2.26058594 -6.625 2.375 C-7.85476562 2.44460937 -9.08453125 2.51421875 -10.3515625 2.5859375 C-13.83653855 2.9814487 -16.73049601 3.76261849 -20 5 C-20 5.33 -20 5.66 -20 6 C-18.55367188 5.98259766 -18.55367188 5.98259766 -17.078125 5.96484375 C-15.81484375 5.95582031 -14.5515625 5.94679688 -13.25 5.9375 C-11.99703125 5.92589844 -10.7440625 5.91429687 -9.453125 5.90234375 C-6.71463499 5.97978973 -4.58119707 6.17219185 -2 7 C-2 7.66 -2 8.32 -2 9 C-8.27 8.67 -14.54 8.34 -21 8 C-21.66 6.68 -22.32 5.36 -23 4 C-19.91644408 1.31269543 -17.81158833 0.57360211 -13.75 0.3125 C-12.30947266 0.21582031 -12.30947266 0.21582031 -10.83984375 0.1171875 C-7.21756483 -0.03228756 -3.62474353 -0.06839139 0 0 Z " fill="#A64A4A" transform="translate(144,52)"/>
<path d="M0 0 C5.94 0.99 5.94 0.99 12 2 C12.33 2.99 12.66 3.98 13 5 C13.94101563 5.13277344 14.88203125 5.26554688 15.8515625 5.40234375 C17.09679687 5.57894531 18.34203125 5.75554687 19.625 5.9375 C20.85476562 6.11152344 22.08453125 6.28554687 23.3515625 6.46484375 C26.57556184 6.93774301 29.78812176 7.45151002 33 8 C33 8.33 33 8.66 33 9 C21.29158191 9.87630572 10.60943283 6.7470411 0 2 C0 1.34 0 0.68 0 0 Z " fill="#9E4346" transform="translate(83,144)"/>
<path d="M0 0 C1.32 0 2.64 0 4 0 C4.66 0.99 5.32 1.98 6 3 C6.99 3.33 7.98 3.66 9 4 C9.99 5.485 9.99 5.485 11 7 C11.598125 7.144375 12.19625 7.28875 12.8125 7.4375 C15.89769368 8.23083552 17.67734584 9.86566915 20 12 C20.33 12.99 20.66 13.98 21 15 C12.69323658 11.93010917 5.14829791 7.27862807 0 0 Z " fill="#993132" transform="translate(61,130)"/>
<path d="M0 0 C9.66771023 6.62928702 16.08285244 14.30115147 21 25 C21 25.66 21 26.32 21 27 C20.34 27 19.68 27 19 27 C18.46890625 26.04738281 17.9378125 25.09476563 17.390625 24.11328125 C16.67731769 22.84622221 15.96376284 21.57930249 15.25 20.3125 C14.72792969 19.37374023 14.72792969 19.37374023 14.1953125 18.41601562 C10.74189809 12.3085883 6.88127531 7.70378854 1.390625 3.33203125 C0.93171875 2.89246094 0.4728125 2.45289063 0 2 C0 1.34 0 0.68 0 0 Z " fill="#A34145" transform="translate(163,29)"/>
<path d="M0 0 C1.32 0.66 2.64 1.32 4 2 C4 4.31 4 6.62 4 9 C2.68 9.33 1.36 9.66 0 10 C0 10.99 0 11.98 0 13 C-0.66 13 -1.32 13 -2 13 C-2.19294408 8.17639811 -1.75747614 4.50353262 0 0 Z " fill="#AB2324" transform="translate(183,70)"/>
<path d="M0 0 C1.875 0.1875 1.875 0.1875 4 1 C5.25 3.5625 5.25 3.5625 6 6 C6.66 6 7.32 6 8 6 C8.66 7.65 9.32 9.3 10 11 C10.66 11 11.32 11 12 11 C12.67756882 12.55780332 13.34159457 14.12150096 14 15.6875 C14.37125 16.55761719 14.7425 17.42773438 15.125 18.32421875 C16.01870488 21.0572002 16.16449676 23.14700934 16 26 C13.91180049 22.86770073 12.42017915 19.71548217 10.8125 16.3125 C8.23880181 10.98848401 5.43580403 6.63382877 1.28515625 2.35546875 C0 1 0 1 0 0 Z " fill="#A34144" transform="translate(164,40)"/>
<path d="M0 0 C0.66 0.33 1.32 0.66 2 1 C-3.75 5 -3.75 5 -6 5 C-5.34 7.31 -4.68 9.62 -4 12 C-5.65 12.33 -7.3 12.66 -9 13 C-9 12.01 -9 11.02 -9 10 C-8.34 9.67 -7.68 9.34 -7 9 C-8.32 8.34 -9.64 7.68 -11 7 C-11.33 7.66 -11.66 8.32 -12 9 C-12.66 8.01 -13.32 7.02 -14 6 C-13.15695313 5.65066406 -12.31390625 5.30132812 -11.4453125 4.94140625 C-10.34960938 4.48636719 -9.25390625 4.03132812 -8.125 3.5625 C-7.03445312 3.11003906 -5.94390625 2.65757812 -4.8203125 2.19140625 C-3.19441376 1.50456537 -1.57868226 0.78934113 0 0 Z " fill="#1D282F" transform="translate(102,162)"/>
<path d="M0 0 C3.29514925 0.48221696 6.3655521 1.10902431 9.5625 2.0625 C14.43923738 3.39251929 18.11237503 3.11717142 23 2 C23 1.34 23 0.68 23 0 C24.32 0.33 25.64 0.66 27 1 C22.65462194 4.28552975 19.61923716 5.90634605 14 6 C8.63456683 4.91364491 4.26967284 3.49426099 0 0 Z " fill="#9A4143" transform="translate(101,90)"/>
<path d="M0 0 C4.20097942 4.6355635 6.95696085 9.32553223 7.03125 15.66796875 C6.47733516 22.52266484 6.47733516 22.52266484 4 25 C4.05800781 24.18917969 4.11601562 23.37835938 4.17578125 22.54296875 C4.51894865 14.12066038 3.11842728 8.33962577 -1 1 C-0.67 0.67 -0.34 0.34 0 0 Z " fill="#343E44" transform="translate(15,142)"/>
<path d="M0 0 C0.66 0.33 1.32 0.66 2 1 C1.01 3.31 0.02 5.62 -1 8 C-1.66 8 -2.32 8 -3 8 C-3.33 9.32 -3.66 10.64 -4 12 C-5.65 12.33 -7.3 12.66 -9 13 C-7.68554313 7.01191871 -4.38808974 3.96570677 0 0 Z " fill="#942426" transform="translate(61,29)"/>
<path d="M0 0 C1.32 0.66 2.64 1.32 4 2 C4 4.97 4 7.94 4 11 C3.67 11 3.34 11 3 11 C3 8.36 3 5.72 3 3 C1.72799029 4.10281127 0.45744147 5.20730769 -0.8125 6.3125 C-1.52019531 6.92738281 -2.22789062 7.54226562 -2.95703125 8.17578125 C-4.70136739 9.73334335 -6.36778041 11.32658875 -8 13 C-8 11.68 -8 10.36 -8 9 C-7.34 9 -6.68 9 -6 9 C-5.67 8.01 -5.34 7.02 -5 6 C-4.34 6 -3.68 6 -3 6 C-2.690625 5.195625 -2.38125 4.39125 -2.0625 3.5625 C-1 1 -1 1 0 0 Z " fill="#932B2D" transform="translate(145,67)"/>
<path d="M0 0 C3.3 0 6.6 0 10 0 C6.04432985 2.63711344 1.92677148 4.9639263 -2.1875 7.34375 C-4.15985426 8.50524751 -6.09548471 9.73032314 -8 11 C-8.33 9.68 -8.66 8.36 -9 7 C-7.35 7 -5.7 7 -4 7 C-4 6.34 -4 5.68 -4 5 C-3.01 4.67 -2.02 4.34 -1 4 C-0.67 2.68 -0.34 1.36 0 0 Z " fill="#942C2C" transform="translate(77,27)"/>
<path d="M0 0 C0.33 0.66 0.66 1.32 1 2 C1.66 2.33 2.32 2.66 3 3 C1.865625 3.12375 0.73125 3.2475 -0.4375 3.375 C-2.2009375 3.684375 -2.2009375 3.684375 -4 4 C-4.33 4.66 -4.66 5.32 -5 6 C-5.70125 5.7525 -6.4025 5.505 -7.125 5.25 C-11.14531402 4.90040748 -12.88338362 6.60817813 -16 9 C-16.66 8.67 -17.32 8.34 -18 8 C-12.35373167 3.3575127 -7.09930617 1.57905002 0 0 Z " fill="#9F2E2E" transform="translate(82,19)"/>
<path d="M0 0 C-3.09535009 2.06356673 -6.24754555 3.88180175 -9.5 5.6875 C-10.6446875 6.33074219 -11.789375 6.97398437 -12.96875 7.63671875 C-16 9 -16 9 -19 8 C-15.25 5 -15.25 5 -13 5 C-13 4.34 -13 3.68 -13 3 C-11.40084119 2.30093058 -9.79544955 1.61610532 -8.1875 0.9375 C-7.29417969 0.55464844 -6.40085937 0.17179688 -5.48046875 -0.22265625 C-3 -1 -3 -1 0 0 Z " fill="#2F383D" transform="translate(39,178)"/>
<path d="M0 0 C2.4375 1.1875 2.4375 1.1875 3.4375 3.1875 C1.1275 2.8575 -1.1825 2.5275 -3.5625 2.1875 C-3.5625 3.5075 -3.5625 4.8275 -3.5625 6.1875 C-2.9025 6.1875 -2.2425 6.1875 -1.5625 6.1875 C-0.9025 7.5075 -0.2425 8.8275 0.4375 10.1875 C-2.67448065 8.68913895 -5.6159615 6.98816242 -8.5625 5.1875 C-7.2425 4.8575 -5.9225 4.5275 -4.5625 4.1875 C-4.5625 2.8675 -4.5625 1.5475 -4.5625 0.1875 C-2.5625 -0.8125 -2.5625 -0.8125 0 0 Z " fill="#A03337" transform="translate(158.5625,25.8125)"/>
<path d="M0 0 C3.08380443 2.62077073 4.49019889 5.67901837 6.1875 9.3125 C6.71730469 10.42238281 7.24710938 11.53226563 7.79296875 12.67578125 C9.01640869 16.04519029 9.24161428 18.45095471 9 22 C8.67 22 8.34 22 8 22 C7.76216797 21.18208984 7.76216797 21.18208984 7.51953125 20.34765625 C5.90822646 15.13984795 3.85317535 10.682576 0.98828125 6.04296875 C0 4 0 4 0 0 Z " fill="#99363B" transform="translate(181,139)"/>
<path d="M0 0 C0.99 0.33 1.98 0.66 3 1 C2.62488281 1.4125 2.24976563 1.825 1.86328125 2.25 C-1.95796035 6.56213158 -5.08513088 11.03440438 -8 16 C-8.7421875 14.35546875 -8.7421875 14.35546875 -9 12 C-7.3828125 9.23828125 -7.3828125 9.23828125 -5.125 6.3125 C-4.38507812 5.33925781 -3.64515625 4.36601563 -2.8828125 3.36328125 C-1 1 -1 1 0 0 Z " fill="#3D474D" transform="translate(34,89)"/>
<path d="M0 0 C0.66 0.33 1.32 0.66 2 1 C1.41992188 1.49628906 0.83984375 1.99257812 0.2421875 2.50390625 C-4.61573275 6.72853327 -8.94036893 11.00353099 -13 16 C-13 11.08924079 -9.30469813 8.39044878 -6 5 C-4.05397986 3.23549584 -2.07285289 1.6178364 0 0 Z " fill="#3D474B" transform="translate(31,82)"/>
<path d="M0 0 C3.73829578 4.29904015 7 10.24928075 7 16 C6.34 16 5.68 16 5 16 C0 4.63636364 0 4.63636364 0 0 Z " fill="#384349" transform="translate(24,135)"/>
<path d="M0 0 C2 2 2 2 2 3 C3.44632812 2.98259766 3.44632812 2.98259766 4.921875 2.96484375 C6.18515625 2.95582031 7.4484375 2.94679687 8.75 2.9375 C10.00296875 2.92589844 11.2559375 2.91429687 12.546875 2.90234375 C15.28536501 2.97978973 17.41880293 3.17219185 20 4 C20 4.66 20 5.32 20 6 C13.73 5.67 7.46 5.34 1 5 C0.34 3.68 -0.32 2.36 -1 1 C-0.67 0.67 -0.34 0.34 0 0 Z " fill="#9A393C" transform="translate(122,55)"/>
<path d="M0 0 C1.62276158 2.43414237 2.61744792 4.31319446 3.625 7 C3.88539063 7.680625 4.14578125 8.36125 4.4140625 9.0625 C5 11 5 11 5 14 C0.25 12.125 0.25 12.125 -2 11 C-1.67 10.34 -1.34 9.68 -1 9 C-0.34 9.33 0.32 9.66 1 10 C0.67 6.7 0.34 3.4 0 0 Z " fill="#A93E40" transform="translate(171,135)"/>
<path d="M0 0 C0.33 1.65 0.66 3.3 1 5 C-2.63 4.34 -6.26 3.68 -10 3 C-9.67 2.34 -9.34 1.68 -9 1 C-5.85554549 0.15014743 -3.29227921 0 0 0 Z " fill="#A0363A" transform="translate(154,146)"/>
<path d="M0 0 C3.16968894 2.11312596 4.1129989 3.90073052 5.8828125 7.1796875 C7.55664858 9.90698685 9.64800432 11.84400396 12 14 C11.67 14.66 11.34 15.32 11 16 C2.52946409 7.74360685 2.52946409 7.74360685 0 4 C0 2.68 0 1.36 0 0 Z " fill="#892A2E" transform="translate(49,114)"/>
<path d="M0 0 C5.28 0 10.56 0 16 0 C15.67 0.99 15.34 1.98 15 3 C13.2507786 3.08142927 11.50045458 3.13938541 9.75 3.1875 C8.28820312 3.23970703 8.28820312 3.23970703 6.796875 3.29296875 C4 3 4 3 0 0 Z " fill="#882B2F" transform="translate(110,151)"/>
<path d="M0 0 C1.32 0.33 2.64 0.66 4 1 C4 1.66 4 2.32 4 3 C3.34 3 2.68 3 2 3 C1.26010787 5.90624297 0.58349094 8.82150775 -0.0625 11.75 C-0.23910156 12.54921875 -0.41570313 13.3484375 -0.59765625 14.171875 C-0.73042969 14.77515625 -0.86320312 15.3784375 -1 16 C-1.33 16 -1.66 16 -2 16 C-2 12.7 -2 9.4 -2 6 C-1.34 6 -0.68 6 0 6 C0 4.02 0 2.04 0 0 Z " fill="#A03034" transform="translate(42,63)"/>
<path d="M0 0 C0.99 0.33 1.98 0.66 3 1 C0.36 3.64 -2.28 6.28 -5 9 C-5.66 8.67 -6.32 8.34 -7 8 C-3.375 2.25 -3.375 2.25 0 0 Z " fill="#343F49" transform="translate(120,155)"/>
<path d="M0 0 C5.94 0.99 5.94 0.99 12 2 C12 2.99 12 3.98 12 5 C10.3743193 4.69106068 8.74947252 4.3777305 7.125 4.0625 C6.22007813 3.88847656 5.31515625 3.71445313 4.3828125 3.53515625 C2 3 2 3 0 2 C0 1.34 0 0.68 0 0 Z " fill="#A93D3E" transform="translate(83,144)"/>
<path d="M0 0 C0 5.31143419 -3.75422981 9.94278726 -7 14 C-7.33 13.01 -7.66 12.02 -8 11 C-6.6015625 8.5546875 -6.6015625 8.5546875 -4.625 5.875 C-3.65433594 4.54082031 -3.65433594 4.54082031 -2.6640625 3.1796875 C-1 1 -1 1 0 0 Z " fill="#923636" transform="translate(53,38)"/>
<path d="M0 0 C0.66 0.33 1.32 0.66 2 1 C1.319375 1.804375 1.319375 1.804375 0.625 2.625 C-1.21688312 5.31698302 -2.07971933 7.88520388 -3 11 C-3.66 11 -4.32 11 -5 11 C-4.4971641 7.31253672 -4.00153469 4.17890804 -2 1 C-1.34 0.67 -0.68 0.34 0 0 Z " fill="#2E393F" transform="translate(18,97)"/>
<path d="M0 0 C0.33 0 0.66 0 1 0 C0.67 3.3 0.34 6.6 0 10 C-0.99 9.67 -1.98 9.34 -3 9 C-3 7.35 -3 5.7 -3 4 C-2.34 3.67 -1.68 3.34 -1 3 C-0.67 2.01 -0.34 1.02 0 0 Z " fill="#A82325" transform="translate(186,80)"/>
<path d="M0 0 C1.29315061 0.95632999 2.58446853 1.91513851 3.875 2.875 C4.59429687 3.40867188 5.31359375 3.94234375 6.0546875 4.4921875 C8 6 8 6 10 8 C9.67 8.99 9.34 9.98 9 11 C7.33333333 9.33333333 5.66666667 7.66666667 4 6 C3.236875 5.278125 2.47375 4.55625 1.6875 3.8125 C0 2 0 2 0 0 Z " fill="#983F41" transform="translate(163,29)"/>
<path d="M0 0 C3.79303725 1.00193437 6.71536341 1.81024227 10 4 C10 4.66 10 5.32 10 6 C6.40992874 4.66654496 3.20429093 3.1056769 0 1 C0 0.67 0 0.34 0 0 Z " fill="#A44547" transform="translate(72,139)"/>
<path d="M0 0 C0.66 0.33 1.32 0.66 2 1 C0.87895467 2.31587941 -0.24696965 3.62760353 -1.375 4.9375 C-2.00148437 5.66839844 -2.62796875 6.39929688 -3.2734375 7.15234375 C-5 9 -5 9 -7 10 C-5.33248852 6.05860922 -2.77289351 3.2107188 0 0 Z " fill="#983336" transform="translate(135,80)"/>
<path d="M0 0 C0.99 0.66 1.98 1.32 3 2 C3 5 3 5 1.625 6.5625 C1.08875 7.036875 0.5525 7.51125 0 8 C-0.66 8.66 -1.32 9.32 -2 10 C-1.54177532 6.53058454 -1.10868317 3.32604951 0 0 Z " fill="#2C3A40" transform="translate(17,168)"/>
<path d="M0 0 C0.33 0 0.66 0 1 0 C1 2.31 1 4.62 1 7 C-0.65 7.33 -2.3 7.66 -4 8 C-3.67 7.01 -3.34 6.02 -3 5 C-2.34 5.33 -1.68 5.66 -1 6 C-0.67 4.02 -0.34 2.04 0 0 Z " fill="#9D2B31" transform="translate(187,84)"/>
<path d="M0 0 C0 3.96 0 7.92 0 12 C-0.33 12 -0.66 12 -1 12 C-1.66 8.37 -2.32 4.74 -3 1 C-1 0 -1 0 0 0 Z " fill="#863C41" transform="translate(41,85)"/>
<path d="M0 0 C-2.98646769 1.99097846 -5.59687262 2.94124926 -9 4 C-9.33 3.34 -9.66 2.68 -10 2 C-3.375 -1.125 -3.375 -1.125 0 0 Z " fill="#353E44" transform="translate(39,178)"/>
<path d="M0 0 C1.65 0 3.3 0 5 0 C5 0.66 5 1.32 5 2 C5.66 2 6.32 2 7 2 C7.66 3.32 8.32 4.64 9 6 C5.88802644 4.50164236 2.91164984 2.86022073 0 1 C0 0.67 0 0.34 0 0 Z " fill="#93302C" transform="translate(150,30)"/>
<path d="M0 0 C1.98 0 3.96 0 6 0 C6.33 0.99 6.66 1.98 7 3 C5.68 3.33 4.36 3.66 3 4 C2.01 2.68 1.02 1.36 0 0 Z " fill="#AD2123" transform="translate(57,122)"/>
<path d="M0 0 C1.32 0.33 2.64 0.66 4 1 C2.02 2.32 0.04 3.64 -2 5 C-2.99 4.34 -3.98 3.68 -5 3 C-3.35 2.67 -1.7 2.34 0 2 C0 1.34 0 0.68 0 0 Z " fill="#A0373A" transform="translate(124,90)"/>
<path d="M0 0 C0.33 1.32 0.66 2.64 1 4 C-0.98 4.99 -0.98 4.99 -3 6 C-3.99 5.01 -4.98 4.02 -6 3 C-5.195625 2.87625 -4.39125 2.7525 -3.5625 2.625 C-2.716875 2.41875 -1.87125 2.2125 -1 2 C-0.67 1.34 -0.34 0.68 0 0 Z " fill="#A0282B" transform="translate(156,86)"/>
</svg>
