<?xml version="1.0" encoding="UTF-8"?>
<svg version="1.1" xmlns="http://www.w3.org/2000/svg" width="200" height="200">
<path d="M0 0 C66 0 132 0 200 0 C200 66 200 132 200 200 C134 200 68 200 0 200 C0 134 0 68 0 0 Z " fill="#FEFDFD" transform="translate(0,0)"/>
<path d="M0 0 C1.19882813 0.00322266 2.39765625 0.00644531 3.6328125 0.00976562 C5.4890625 0.02233398 5.4890625 0.02233398 7.3828125 0.03515625 C8.64351563 0.03966797 9.90421875 0.04417969 11.203125 0.04882812 C14.30473636 0.06057665 17.40624975 0.07700458 20.5078125 0.09765625 C20.5078125 0.75765625 20.5078125 1.41765625 20.5078125 2.09765625 C21.5184375 2.15953125 22.5290625 2.22140625 23.5703125 2.28515625 C41.76558266 4.6079567 58.88896095 14.67237152 70.625 28.5703125 C81.15778124 42.70871387 83.99743627 58.84123539 82.5078125 76.09765625 C81.8478125 77.08765625 81.1878125 78.07765625 80.5078125 79.09765625 C79.5178125 79.09765625 78.5278125 79.09765625 77.5078125 79.09765625 C77.46914063 77.30134766 77.46914063 77.30134766 77.4296875 75.46875 C76.94131069 59.64305463 75.07591544 44.82361094 64.1953125 32.47265625 C62.865 31.29703125 62.865 31.29703125 61.5078125 30.09765625 C60.9303125 29.50597656 60.3528125 28.91429688 59.7578125 28.3046875 C45.20120601 14.05134364 25.56809417 9.4517016 5.78637695 9.62670898 C-11.8931036 10.13084363 -27.34941991 15.31970157 -40.34765625 27.79296875 C-46.22015362 34.1040315 -49.65563731 41.23081449 -53.09765625 49.08203125 C-54.4921875 52.09765625 -54.4921875 52.09765625 -56.14453125 54.359375 C-58.20423877 58.54446187 -57.93787836 62.55875004 -57.8671875 67.16015625 C-57.85703613 68.10101074 -57.84688477 69.04186523 -57.83642578 70.01123047 C-57.4964972 85.29747631 -52.65354057 96.72661829 -42.4921875 108.09765625 C-42.4921875 108.75765625 -42.4921875 109.41765625 -42.4921875 110.09765625 C-41.90179688 110.37222656 -41.31140625 110.64679688 -40.703125 110.9296875 C-38.58289576 112.04973793 -36.96013573 113.26326461 -35.1171875 114.78515625 C-19.58482104 126.54948566 -1.69030671 130.76652044 17.5078125 129.09765625 C21.64251709 128.41217724 25.53593474 127.42377179 29.5078125 126.09765625 C40.72546364 122.48519232 50.67106113 124.06021873 61.1953125 129.28515625 C62.2884375 129.88328125 63.3815625 130.48140625 64.5078125 131.09765625 C64.5078125 131.75765625 64.5078125 132.41765625 64.5078125 133.09765625 C66.1578125 133.42765625 67.8078125 133.75765625 69.5078125 134.09765625 C68.39019856 130.65771022 67.26246004 127.22116752 66.1328125 123.78515625 C65.81570312 122.80869141 65.49859375 121.83222656 65.171875 120.82617188 C64.8625 119.88837891 64.553125 118.95058594 64.234375 117.984375 C63.95158691 117.12030029 63.66879883 116.25622559 63.37744141 115.3659668 C62.51728468 112.87343672 62.51728468 112.87343672 60.5078125 110.09765625 C60.8828125 107.41015625 60.8828125 107.41015625 61.5078125 105.09765625 C65.27743045 105.60706408 67.0764466 106.1685586 69.5078125 109.09765625 C70.42779754 110.87968001 71.27308026 112.70106348 72.06640625 114.54296875 C72.76926758 116.15945312 72.76926758 116.15945312 73.48632812 117.80859375 C73.96779297 118.93523437 74.44925781 120.061875 74.9453125 121.22265625 C75.90227841 123.43362203 76.85930858 125.64456 77.81640625 127.85546875 C78.49823975 129.44838745 78.49823975 129.44838745 79.19384766 131.07348633 C80.67945517 134.49270228 82.24521013 137.87017274 83.8527832 141.23364258 C84.84376639 144.05367858 84.36889665 146.29913275 83.5078125 149.09765625 C76.23445722 151.24660213 71.10817369 148.20860631 64.5078125 145.09765625 C63.18537132 144.48854993 61.86243585 143.88051587 60.5390625 143.2734375 C50.67811838 138.72734296 50.67811838 138.72734296 47.30078125 136.91015625 C42.64016087 134.79815398 37.7302377 135.87520096 33.1328125 137.53515625 C32.00166016 137.96828125 32.00166016 137.96828125 30.84765625 138.41015625 C28.31048314 139.15563616 26.32642247 139.10251267 23.6953125 139.03515625 C17.78766875 139.44604337 14.88841091 143.28819664 11.10571289 147.37084961 C2.52472978 156.54127217 -9.31364268 162.39648166 -21.94732666 163.26678467 C-29.48392314 163.46522292 -37.02437444 163.18352066 -44.55712891 162.94018555 C-60.62093529 162.43787604 -60.62093529 162.43787604 -75.4921875 168.09765625 C-76.69854661 168.71095931 -77.90546725 169.32316089 -79.11328125 169.93359375 C-81.01150278 170.97090205 -82.90729447 172.01266772 -84.80078125 173.05859375 C-87.87461134 174.24529738 -89.38782692 174.05544445 -92.4921875 173.09765625 C-92.19940175 168.31548908 -91.27792823 164.29481006 -89.63061523 159.77929688 C-86.4978819 151.1460032 -84.11686075 143.15340272 -88.03515625 134.3828125 C-89.23261325 131.90711768 -90.52199081 129.53510001 -91.86328125 127.12890625 C-96.60051271 118.31333884 -95.65097308 105.2475966 -93.84375 95.65625 C-92.92615147 92.96227484 -91.86039912 90.59191814 -90.4921875 88.09765625 C-89.98300781 87.15664062 -89.47382812 86.215625 -88.94921875 85.24609375 C-84.27649031 77.31207888 -79.08548543 71.68952824 -70.6796875 67.84765625 C-67.85382249 66.36651321 -66.7126599 65.53301947 -65.2578125 62.66015625 C-63.96979743 58.28576545 -63.36965206 54.44322551 -63.8046875 49.91015625 C-64.14130192 40.5522753 -56.89182898 30.24535717 -50.9921875 23.53515625 C-49.51390474 22.03428513 -48.01523891 20.55307661 -46.4921875 19.09765625 C-45.57373047 18.15019531 -45.57373047 18.15019531 -44.63671875 17.18359375 C-33.3792611 6.28618272 -15.45926745 -0.07361556 0 0 Z " fill="#AD3131" transform="translate(105.4921875,12.90234375)"/>
<path d="M0 0 C0.23074219 1.01578125 0.46148437 2.0315625 0.69921875 3.078125 C5.97450141 25.65578382 16.19863785 41.38831118 35.62890625 54.57421875 C38.34920389 56.20998257 40.99411961 57.33925529 44.00390625 58.3203125 C46.25345953 59.0863052 48.34844701 60.05476407 50.5 61.0625 C58.5486621 64.65491818 66.27715188 65.44755295 75 66 C71.26770911 74.67757631 60.58101652 78.67182447 52.359375 82.1015625 C45.10441848 84.86421151 36.45353695 84.69794236 28.859375 83.5078125 C23.62644904 82.81926961 18.46015308 82.77611841 13.1875 82.75 C12.15818359 82.729375 11.12886719 82.70875 10.06835938 82.6875 C3.15865792 82.6525363 -2.49779393 83.74619728 -9 86 C-10.32961147 86.3478825 -11.66194713 86.68614747 -13 87 C-12.67 84.69 -12.34 82.38 -12 80 C-11.34 80 -10.68 80 -10 80 C-8.99157507 68.55717817 -10.03102518 60.98002191 -16.15234375 51.171875 C-20.76573041 43.25206534 -20.3334479 31.30389365 -18.12890625 22.53515625 C-15.75014711 16.47516984 -7.74344175 0 0 0 Z " fill="#FBFBFB" transform="translate(40,86)"/>
<path d="M0 0 C0.5 3.0625 0.5 3.0625 0 7 C-1.77412693 8.8914992 -3.73039815 10.38247283 -5.765625 11.98828125 C-9.83102694 15.64856447 -12.37219669 20.2518792 -15 25 C-15.36351562 25.62261719 -15.72703125 26.24523437 -16.1015625 26.88671875 C-19.79473325 34.56644297 -19.33658847 46.77227128 -16.875 54.875 C-15.9339315 57.25722172 -14.82643006 59.27735858 -13.46484375 61.453125 C-8.58904984 69.33738749 -8.09288069 75.91732438 -9 85 C-9.33 85.66 -9.66 86.32 -10 87 C-10.66 87 -11.32 87 -12 87 C-12.33 89.31 -12.66 91.62 -13 94 C-12.11248047 93.58427734 -12.11248047 93.58427734 -11.20703125 93.16015625 C-10.02173828 92.61681641 -10.02173828 92.61681641 -8.8125 92.0625 C-7.64654297 91.52302734 -7.64654297 91.52302734 -6.45703125 90.97265625 C-2.15766796 89.27068255 1.8925453 88.87273784 6.4921875 88.8671875 C7.52730469 88.86589844 8.56242187 88.86460937 9.62890625 88.86328125 C10.70011719 88.86714844 11.77132812 88.87101562 12.875 88.875 C13.93847656 88.87113281 15.00195312 88.86726563 16.09765625 88.86328125 C21.51139638 88.87000639 26.64436312 89.13315288 32 90 C38.94428066 90.38529557 45.39525796 90.2667162 52 88 C52.76699219 87.75507813 53.53398438 87.51015625 54.32421875 87.2578125 C62.14521885 84.48301498 69.12662207 79.87337793 75 74 C77.68839385 73.73008094 80.29141936 73.91262643 83 74 C75.58503707 83.08332958 68.03267648 89.61214695 57 94 C56.3181665 94.2779541 55.63633301 94.5559082 54.93383789 94.84228516 C44.17003107 98.52212742 32.30007129 97.11802023 21.09985352 96.78759766 C4.94837894 96.31483263 4.94837894 96.31483263 -10 102 C-11.20632704 102.61336613 -12.41324311 103.22557713 -13.62109375 103.8359375 C-15.51931528 104.8732458 -17.41510697 105.91501147 -19.30859375 106.9609375 C-22.38242384 108.14764113 -23.89563942 107.9577882 -27 107 C-26.70721425 102.21783283 -25.78574073 98.19715381 -24.13842773 93.68164062 C-21.0056944 85.04834695 -18.62467325 77.05574647 -22.54296875 68.28515625 C-23.74042575 65.80946143 -25.02980331 63.43744376 -26.37109375 61.03125 C-31.10832521 52.21568259 -30.15878558 39.14994035 -28.3515625 29.55859375 C-27.43396397 26.86461859 -26.36821162 24.49426189 -25 22 C-24.23623047 20.58847656 -24.23623047 20.58847656 -23.45703125 19.1484375 C-18.81511291 11.26673633 -10.14322541 0 0 0 Z " fill="#2A3A42" transform="translate(40,79)"/>
<path d="M0 0 C1.46083008 0.00773437 1.46083008 0.00773437 2.95117188 0.015625 C3.96630859 0.03625 4.98144531 0.056875 6.02734375 0.078125 C7.55584961 0.08585937 7.55584961 0.08585937 9.11523438 0.09375 C16.65600404 0.17370515 16.65600404 0.17370515 18.96484375 1.328125 C18.96484375 1.988125 18.96484375 2.648125 18.96484375 3.328125 C19.54234375 3.51375 20.11984375 3.699375 20.71484375 3.890625 C24.02415063 6.0049044 25.57797558 8.75146497 26.96484375 12.328125 C27.66131994 15.66084989 27.85444309 18.92970462 27.96484375 22.328125 C28.02478516 23.91367188 28.02478516 23.91367188 28.0859375 25.53125 C28.25753561 33.88908721 28.25753561 33.88908721 25.96484375 37.328125 C22.96484375 37.640625 22.96484375 37.640625 19.96484375 37.328125 C17.56797725 34.9312585 17.68203242 34.25784186 17.55078125 30.9765625 C17.51210937 30.12578125 17.4734375 29.275 17.43359375 28.3984375 C17.40265625 27.50898437 17.37171875 26.61953125 17.33984375 25.703125 C17.30117187 24.8059375 17.2625 23.90875 17.22265625 22.984375 C17.12825018 20.7658323 17.04267627 18.54730097 16.96484375 16.328125 C12.61908793 19.81996456 9.11373271 23.12762891 6.02734375 27.828125 C1.75412768 33.91497347 -3.57760244 39.46373655 -11.03515625 41.328125 C-16.48342875 41.98567513 -19.50187088 41.27533508 -24.41015625 38.828125 C-29.63762917 36.32645746 -34.30285724 34.50291536 -40.03515625 36.328125 C-44.37038489 39.80229786 -47.3797872 44.16761148 -50.22265625 48.890625 C-52.03515625 51.328125 -52.03515625 51.328125 -54.59765625 51.890625 C-57.03515625 51.328125 -57.03515625 51.328125 -58.91015625 50.265625 C-60.29366297 47.88291899 -60.45477764 46.12467525 -59.921875 43.42578125 C-56.76020411 35.94641002 -49.81082102 30.24983847 -42.4921875 27.11328125 C-34.07401397 24.42321308 -28.82190034 27.20913282 -21.11328125 30.96484375 C-16.76175723 32.89210502 -14.71015961 33.35821049 -10.03515625 32.328125 C-0.7896483 26.64715023 5.81201172 15.94208984 11.96484375 7.328125 C6.02484375 7.328125 0.08484375 7.328125 -6.03515625 7.328125 C-6.69515625 6.008125 -7.35515625 4.688125 -8.03515625 3.328125 C-5.55255387 0.22934634 -3.90282831 -0.04083414 0 0 Z " fill="#AC2F2F" transform="translate(130.03515625,52.671875)"/>
<path d="M0 0 C2.125 7.5 2.125 7.5 1 12 C0.01 9.36 -0.98 6.72 -2 4 C-2.94875 4.99 -3.8975 5.98 -4.875 7 C-6.4921875 8.6875 -6.4921875 8.6875 -8 10 C-8.66 10 -9.32 10 -10 10 C-8.50006099 6.10015857 -4.53875449 0 0 0 Z " fill="#D5C7C8" transform="translate(40,86)"/>
<path d="M0 0 C2.23127725 3.34691588 3.38532762 6.71611628 4.625 10.5 C4.85445312 11.17675781 5.08390625 11.85351562 5.3203125 12.55078125 C6.29296917 15.48612014 7 17.88708081 7 21 C5.35 20.67 3.7 20.34 2 20 C2.99 19.67 3.98 19.34 5 19 C4.6390625 17.96359375 4.278125 16.9271875 3.90625 15.859375 C3.4371807 14.48969264 2.96844834 13.11989486 2.5 11.75 C2.14228516 10.72712891 2.14228516 10.72712891 1.77734375 9.68359375 C0.60578713 6.23586997 0 3.68297096 0 0 Z " fill="#D89C9C" transform="translate(168,126)"/>
<path d="M0 0 C0.66 0.33 1.32 0.66 2 1 C0.38113585 2.67262717 -1.2452729 4.33795537 -2.875 6 C-3.77992187 6.928125 -4.68484375 7.85625 -5.6171875 8.8125 C-8 11 -8 11 -10 11 C-8.55218207 7.55571735 -6.72305391 5.63869038 -3.875 3.25 C-3.15054688 2.63640625 -2.42609375 2.0228125 -1.6796875 1.390625 C-0.84824219 0.70226562 -0.84824219 0.70226562 0 0 Z " fill="#B64646" transform="translate(83,82)"/>
<path d="M0 0 C0.66 0.33 1.32 0.66 2 1 C0.71451591 2.33929505 -0.57858155 3.67128643 -1.875 5 C-2.59429688 5.7425 -3.31359375 6.485 -4.0546875 7.25 C-6 9 -6 9 -8 9 C-8 9.66 -8 10.32 -8 11 C-8.66 10.67 -9.32 10.34 -10 10 C-3.84965831 2.51708428 -3.84965831 2.51708428 0 0 Z " fill="#4F5C63" transform="translate(30,83)"/>
</svg>
