<?xml version="1.0" standalone="no"?>
<!DOCTYPE svg PUBLIC "-//W3C//DTD SVG 20010904//EN"
 "http://www.w3.org/TR/2001/REC-SVG-20010904/DTD/svg10.dtd">
<svg version="1.0" xmlns="http://www.w3.org/2000/svg"
 width="200.000000pt" height="200.000000pt" viewBox="0 0 200.000000 200.000000"
 preserveAspectRatio="xMidYMid meet">

<g transform="translate(0.000000,200.000000) scale(0.100000,-0.100000)"
fill="#000000" stroke="none">
<path d="M930 1746 c-73 -21 -142 -61 -191 -113 -49 -51 -102 -143 -98 -171 2
-9 -1 -36 -5 -59 -6 -33 -13 -44 -37 -53 -16 -7 -49 -34 -73 -61 -81 -90 -98
-222 -43 -329 32 -62 33 -79 7 -162 -35 -112 -30 -116 76 -63 l69 35 145 -2
c129 -1 151 1 202 21 34 13 81 43 112 72 41 37 66 52 102 59 27 6 61 13 76 16
19 4 54 -7 127 -40 55 -25 109 -46 121 -46 33 0 24 44 -33 160 -72 146 -105
148 -52 3 13 -37 23 -69 21 -70 -2 -2 -33 11 -70 28 -74 34 -94 35 -226 4 -64
-14 -85 -15 -142 -5 -136 24 -249 101 -308 212 -28 51 -34 76 -38 140 -4 74
-3 82 32 154 60 122 129 185 242 219 63 19 214 19 277 0 169 -51 277 -180 281
-336 2 -71 15 -90 29 -41 11 42 -11 160 -41 216 -52 98 -161 178 -287 211 -70
18 -212 18 -275 1z m-247 -598 c36 -62 123 -141 197 -178 51 -26 164 -59 204
-60 21 0 -39 -49 -91 -75 -61 -29 -84 -32 -268 -25 -77 3 -109 0 -139 -13
l-38 -17 7 23 c21 68 17 113 -14 184 -17 40 -31 89 -31 110 0 60 27 127 72
178 l41 47 17 -65 c10 -36 29 -85 43 -109z"/>
<path d="M1150 1510 c-24 -16 6 -30 63 -30 26 0 47 -3 47 -6 0 -4 -15 -23 -32
-43 -18 -20 -44 -51 -58 -68 -41 -50 -68 -56 -130 -27 -28 13 -61 24 -71 24
-60 0 -152 -75 -147 -120 5 -39 33 -36 64 9 44 61 65 69 122 46 26 -10 64 -20
85 -23 37 -4 41 -1 117 79 44 46 80 77 81 69 0 -8 0 -36 -1 -61 -1 -49 16 -74
44 -63 12 5 16 20 16 71 0 69 -16 112 -52 137 -25 18 -124 22 -148 6z"/>
</g>
</svg>
