<?xml version="1.0" encoding="UTF-8"?>
<svg version="1.1" xmlns="http://www.w3.org/2000/svg" width="200" height="200">
<path d="M0 0 C14.14560205 10.54323759 24.04206833 25.49589732 26.72265625 43.13671875 C27.48236151 50.97987309 27.77478183 58.54277382 25 66 C23.125 66.625 23.125 66.625 21 67 C19 65 19 65 18.875 62.1640625 C18.91625 60.99617188 18.9575 59.82828125 19 58.625 C19.1852588 42.12012541 14.86271966 28.54446733 3.5625 16.375 C2.716875 15.59125 1.87125 14.8075 1 14 C0.54625 13.54109375 0.0925 13.0821875 -0.375 12.609375 C-14.70210417 -1.00137396 -34.38133664 -3.49464121 -53.21875 -3.203125 C-69.07110168 -2.68892688 -84.48441004 3.43209039 -95.89453125 14.59375 C-106.31445279 26.50223176 -114.71449832 42.64773654 -114.28515625 58.6640625 C-112.82880028 75.70143239 -104.20785318 89.26182333 -91.34375 100.1875 C-84.159505 105.74331613 -76.63405645 109.27968084 -68 112 C-66.783125 112.391875 -65.56625 112.78375 -64.3125 113.1875 C-50.65448345 116.24734078 -37.70179886 114.9084397 -24.390625 110.91796875 C-11.96699912 107.55442949 -1.27630316 112.11126733 10 117 C9.72736328 116.19163696 9.72736328 116.19163696 9.44921875 115.36694336 C8.62196786 112.89394045 7.81091518 110.41590518 7 107.9375 C6.71382812 107.08994141 6.42765625 106.24238281 6.1328125 105.36914062 C4.51133331 100.3695798 3.65771004 96.25557713 4 91 C6.475 90.505 6.475 90.505 9 90 C12.3786876 93.86355091 14.56495146 97.91343979 16.63671875 102.56640625 C16.96162796 103.2823143 17.28653717 103.99822235 17.62129211 104.73582458 C18.30276524 106.24121338 18.98078615 107.74816926 19.65551758 109.2565918 C20.68735924 111.56218547 21.73043957 113.86243192 22.77539062 116.16210938 C23.43816462 117.62990841 24.10029628 119.09799769 24.76171875 120.56640625 C25.07211594 121.25191055 25.38251312 121.93741486 25.70231628 122.64369202 C29.34171378 130.80400176 29.34171378 130.80400176 28.375 134.1875 C27 136 27 136 24.70458984 136.68310547 C15.77012137 137.72994967 6.35091435 131.42064894 -1.3203125 127.49609375 C-8.44792566 123.96373252 -14.45765097 121.7424067 -22.375 124.3125 C-25.99670474 125.4514637 -29.2948022 126.16029678 -33.0625 126.5625 C-38.78221815 127.63269884 -41.48146104 131.18356188 -45.30859375 135.328125 C-55.63150141 145.57612042 -70.26592416 151.09580498 -84.70849609 151.13867188 C-85.38219238 151.13416016 -86.05588867 151.12964844 -86.75 151.125 C-87.80888428 151.12209961 -87.80888428 151.12209961 -88.88916016 151.11914062 C-93.54544197 151.08079101 -98.09371808 150.75897691 -102.71484375 150.234375 C-114.77728786 148.99720124 -124.08736093 151.63400634 -134.55859375 157.63671875 C-138.98195181 160.10672189 -142.91987487 161.4354393 -148 161 C-149 160 -149 160 -149.375 156.875 C-149.35944146 152.52638758 -147.98177572 148.84067786 -146.5 144.8125 C-143.69129303 136.91270422 -141.81216761 129.06060927 -145.28515625 121.02734375 C-146.8162609 118.21282178 -146.8162609 118.21282178 -148.4921875 115.73046875 C-154.13944378 105.50396062 -153.46305599 90.87436497 -150.375 79.9375 C-148.37463267 74.32516197 -145.63362594 69.6950272 -142 65 C-141.278125 63.96875 -140.55625 62.9375 -139.8125 61.875 C-135.73385872 57.08527982 -129.57149331 53.78574666 -124 51 C-122.63973768 46.61693253 -121.93323711 42.20173205 -122.1875 37.625 C-121.51370739 24.59834285 -111.74557172 11.95076514 -102.66796875 3.28515625 C-74.50575296 -20.83621452 -30.10891029 -20.45261735 0 0 Z M-126.76953125 63.6171875 C-136.07243595 73.89840914 -140.52831508 84.18721136 -140.25 98.05078125 C-139.63449997 105.31175816 -136.46416571 111.38106999 -133.0859375 117.73828125 C-128.82298408 126.61687848 -131.13952511 136.04398933 -134 145 C-133.01902344 144.71125 -132.03804687 144.4225 -131.02734375 144.125 C-118.90037605 140.71865064 -107.90916705 140.40808706 -95.43383789 141.82714844 C-78.78997559 143.71832027 -65.7813205 140.95041191 -52 131 C-50.24258404 128.92290323 -50.24258404 128.92290323 -49 127 C-49.55236328 126.88519287 -50.10472656 126.77038574 -50.67382812 126.65209961 C-68.03920853 122.97076845 -83.0825628 118.41140349 -97 107 C-97.97582031 106.23171875 -98.95164063 105.4634375 -99.95703125 104.671875 C-113.29598686 93.48230439 -119.03486147 78.4143444 -123 62 C-125.15347627 61.77512766 -125.15347627 61.77512766 -126.76953125 63.6171875 Z " fill="#ADC3AC" transform="translate(162,27)"/>
<path d="M0 0 C0.66 0.33 1.32 0.66 2 1 C2.84577332 7.88701134 2.84577332 7.88701134 0.65234375 10.7734375 C-0.57271624 11.92041674 -1.81057573 13.05382565 -3.05859375 14.17578125 C-10.59392783 21.25626619 -14.24065403 31.04643856 -15.34765625 41.18359375 C-15.63414584 50.96160785 -12.60610002 58.23215724 -8.0859375 66.73828125 C-4.27142847 74.68288819 -5.65881692 83.08440276 -8.34375 91.1640625 C-8.5603125 91.76992187 -8.776875 92.37578125 -9 93 C-8.09121094 92.71125 -7.18242187 92.4225 -6.24609375 92.125 C5.62851137 88.61742433 16.31622856 88.43255954 28.56835938 89.82714844 C40.79434856 91.21750142 50.92473659 90.95319569 62 85 C62.89332031 84.52046875 63.78664063 84.0409375 64.70703125 83.546875 C70.43605155 80.40744259 70.43605155 80.40744259 74 75 C78.95 75 83.9 75 89 75 C87.35 76.32 85.7 77.64 84 79 C82.81716612 80.23471256 81.65017432 81.48480825 80.5 82.75 C70.13771191 93.19020003 55.97892935 99.60953599 41.265625 100.1328125 C39.9270867 100.13678541 38.58851418 100.13396398 37.25 100.125 C36.54407715 100.12306641 35.8381543 100.12113281 35.11083984 100.11914062 C30.45455803 100.08079101 25.90628192 99.75897691 21.28515625 99.234375 C9.22271214 97.99720124 -0.08736093 100.63400634 -10.55859375 106.63671875 C-14.98195181 109.10672189 -18.91987487 110.4354393 -24 110 C-25 109 -25 109 -25.375 105.875 C-25.35944146 101.52638758 -23.98177572 97.84067786 -22.5 93.8125 C-19.69129303 85.91270422 -17.81216761 78.06060927 -21.28515625 70.02734375 C-22.8162609 67.21282178 -22.8162609 67.21282178 -24.4921875 64.73046875 C-30.13944378 54.50396062 -29.46305599 39.87436497 -26.375 28.9375 C-24.37463267 23.32516197 -21.63362594 18.6950272 -18 14 C-17.278125 12.96875 -16.55625 11.9375 -15.8125 10.875 C-11.73385872 6.08527982 -5.57149331 2.78574666 0 0 Z " fill="#F1DDBB" transform="translate(38,78)"/>
<path d="M0 0 C5.91962874 7.1243773 6.23393427 14.18656217 6.375 23.125 C6.43107422 24.48431641 6.43107422 24.48431641 6.48828125 25.87109375 C6.52126382 28.34478622 6.4933395 30.57528267 6 33 C3.6796875 35.16015625 3.6796875 35.16015625 1 36 C-2.25 35.3125 -2.25 35.3125 -5 34 C-6.65497356 30.69005287 -6.10084335 27.00877 -6.0625 23.375 C-6.05798828 22.57320312 -6.05347656 21.77140625 -6.04882812 20.9453125 C-6.03703168 18.96350994 -6.01909605 16.98174567 -6 15 C-10.49278331 18.46318714 -13.71190623 21.81809855 -16.9375 26.5 C-21.8417642 33.43198882 -27.03425259 38.47114933 -35.64453125 39.953125 C-40.80493146 40.05581953 -45.47322088 38.06270674 -50.1640625 36.08984375 C-54.82303452 34.15610054 -57.99658824 33.33219608 -63 35 C-65.97055783 37.59195732 -68.18507992 40.67093477 -70.23828125 44.01953125 C-71.4375 45.9375 -71.4375 45.9375 -74 49 C-77.625 49.6875 -77.625 49.6875 -81 49 C-83 47.375 -83 47.375 -84 45 C-84.13385094 39.11055873 -80.81170164 35.15144026 -77 31 C-72.12377654 26.44134571 -66.6908062 22.98131824 -60 22 C-54.21553877 22.22536862 -49.46213836 24.17256034 -44.3125 26.6875 C-41.00891489 28.23721549 -38.99715411 29.00024118 -35.3125 29.3125 C-26.98124521 26.01143678 -21.98454038 17.56060436 -16.8828125 10.5390625 C-15 8 -15 8 -13 6 C-16.60484323 5.41145417 -19.96644905 4.99942154 -23.625 5.0625 C-26.96627288 5.00062458 -29.02235008 4.44370905 -32 3 C-31.42655063 0.13275314 -31.1385485 -0.8614515 -29 -3 C-19.97273623 -5.05165086 -7.44421574 -6.45524988 0 0 Z " fill="#ADC2AC" transform="translate(153,56)"/>
<path d="M0 0 C2.80652405 -0.5102771 4.48735065 -0.33364575 6.890625 1.23046875 C8.74043825 2.75318087 10.45315466 4.16785754 12 6 C12 6.99 12 7.98 12 9 C6.71862571 8.48474397 3.42778844 6.74522883 -1 4 C-0.67 2.68 -0.34 1.36 0 0 Z " fill="#ABC3AA" transform="translate(86,140)"/>
<path d="M0 0 C7.43378943 -0.33452052 13.19877155 -0.13902852 20 3 C20 3.66 20 4.32 20 5 C17.8125 5.75 17.8125 5.75 15 6 C14.2575 5.360625 13.515 4.72125 12.75 4.0625 C8.89134483 1.16850862 5.66366359 1.63422246 1 2 C0.67 1.34 0.34 0.68 0 0 Z " fill="#B8CAB9" transform="translate(141,137)"/>
<path d="M0 0 C1.32 0.66 2.64 1.32 4 2 C3.67 4.97 3.34 7.94 3 11 C2.67 11 2.34 11 2 11 C1.67 9.02 1.34 7.04 1 5 C-0.98 6.32 -2.96 7.64 -5 9 C-5 8.01 -5 7.02 -5 6 C-4.34 6 -3.68 6 -3 6 C-3 5.34 -3 4.68 -3 4 C-2.34 4 -1.68 4 -1 4 C-0.67 2.68 -0.34 1.36 0 0 Z " fill="#A2B7A1" transform="translate(146,66)"/>
<path d="M0 0 C0.70125 0.12375 1.4025 0.2475 2.125 0.375 C1.444375 0.91125 0.76375 1.4475 0.0625 2 C-3.30884168 4.72576561 -6.59565543 7.53983178 -9.875 10.375 C-8.91028972 5.09206277 -5.46881057 0.71332312 0 0 Z " fill="#E9DDC4" transform="translate(124.875,152.625)"/>
<path d="M0 0 C-3.52155964 2.34770643 -5.50771843 2.37669614 -9.6875 2.625 C-10.86699219 2.69976562 -12.04648438 2.77453125 -13.26171875 2.8515625 C-14.16535156 2.90054688 -15.06898438 2.94953125 -16 3 C-15 1 -15 1 -12.5 -0.1875 C-8.08994862 -1.21126193 -4.42289594 -0.72732066 0 0 Z " fill="#B7CAB7" transform="translate(152,148)"/>
<path d="M0 0 C3.3 0 6.6 0 10 0 C9.34 0.66 8.68 1.32 8 2 C5.375 1.625 5.375 1.625 3 1 C2.7525 1.61875 2.505 2.2375 2.25 2.875 C0.79371361 5.35068687 -0.37812506 5.95125002 -3 7 C-3.33 6.34 -3.66 5.68 -4 5 C-3.34 4.360625 -2.68 3.72125 -2 3.0625 C0.11602431 1.35917681 0.11602431 1.35917681 0 0 Z " fill="#E0D6BA" transform="translate(112,153)"/>
<path d="M0 0 C0.53625 0.226875 1.0725 0.45375 1.625 0.6875 C0.635 1.368125 0.635 1.368125 -0.375 2.0625 C-1.365 2.866875 -1.365 2.866875 -2.375 3.6875 C-2.375 4.3475 -2.375 5.0075 -2.375 5.6875 C-5.345 5.1925 -5.345 5.1925 -8.375 4.6875 C-8.375 4.0275 -8.375 3.3675 -8.375 2.6875 C-2.95961538 -0.38942308 -2.95961538 -0.38942308 0 0 Z " fill="#B7C6B5" transform="translate(83.375,17.3125)"/>
<path d="M0 0 C0.66 0 1.32 0 2 0 C2.66 1.65 3.32 3.3 4 5 C2.68 6.32 1.36 7.64 0 9 C0 8.34 0 7.68 0 7 C-0.66 7 -1.32 7 -2 7 C-1.67 6.01 -1.34 5.02 -1 4 C-0.65772583 2.66893378 -0.32248257 1.33599921 0 0 Z " fill="#A8BEA5" transform="translate(51,106)"/>
<path d="M0 0 C3.63 0.33 7.26 0.66 11 1 C10.67 1.99 10.34 2.98 10 4 C6.7 3.34 3.4 2.68 0 2 C0 1.34 0 0.68 0 0 Z " fill="#BBCFB9" transform="translate(99,150)"/>
<path d="M0 0 C4.571279 0.54855348 8.67435795 1.41744803 13 3 C13 3.66 13 4.32 13 5 C3.40546697 3.25740319 3.40546697 3.25740319 0 0 Z " fill="#BBC9B7" transform="translate(85,146)"/>
<path d="M0 0 C1.875 0.25 1.875 0.25 4 1 C5.25 3.0625 5.25 3.0625 6 5 C4.02 5.66 2.04 6.32 0 7 C0 4.69 0 2.38 0 0 Z " fill="#A7BCA5" transform="translate(168,117)"/>
<path d="M0 0 C1.32 0 2.64 0 4 0 C4.66 1.65 5.32 3.3 6 5 C4.68 5.33 3.36 5.66 2 6 C1.34 4.02 0.68 2.04 0 0 Z " fill="#B9CDB8" transform="translate(121,18)"/>
<path d="M0 0 C0.66 0 1.32 0 2 0 C0.125 4.875 0.125 4.875 -1 6 C-3.33297433 6.04092937 -5.66705225 6.04241723 -8 6 C-6 4 -6 4 -3.4375 3 C-0.85158559 2.25129886 -0.85158559 2.25129886 0 0 Z " fill="#B6C4B4" transform="translate(80,99)"/>
<path d="M0 0 C0.99 0.33 1.98 0.66 3 1 C3.66 0.67 4.32 0.34 5 0 C5.66 0.33 6.32 0.66 7 1 C7.625 3.5625 7.625 3.5625 8 6 C5.0280615 4.87548273 2.66559313 3.77706209 0 2 C0 1.34 0 0.68 0 0 Z " fill="#A5B9A2" transform="translate(150,29)"/>
<path d="M0 0 C0 0.66 0 1.32 0 2 C-6.5 6 -6.5 6 -11 6 C-10.67 5.34 -10.34 4.68 -10 4 C-8.66666667 3.66666667 -7.33333333 3.33333333 -6 3 C-5.67 2.34 -5.34 1.68 -5 1 C-2 0 -2 0 0 0 Z " fill="#EBD2B1" transform="translate(108,167)"/>
<path d="M0 0 C0 0.66 0 1.32 0 2 C-4.455 3.485 -4.455 3.485 -9 5 C-9 4.34 -9 3.68 -9 3 C-5.63316085 0.56839395 -4.26649636 0 0 0 Z " fill="#B7C7B7" transform="translate(90,25)"/>
<path d="M0 0 C0.66 0 1.32 0 2 0 C2.99 2.31 3.98 4.62 5 7 C4.01 7 3.02 7 2 7 C0.5393715 4.35261084 0 3.10551666 0 0 Z " fill="#B7C6B6" transform="translate(178,133)"/>
</svg>
